<mxfile host="app.diagrams.net" modified="2023-08-10T10:19:54.184Z" agent="Mozilla/5.0 (Windows NT 10.0; Win64; x64) AppleWebKit/537.36 (KHTML, like Gecko) Chrome/114.0.0.0 Safari/537.36" version="21.6.7" etag="p3zngewwPP9BARsJjdwF" type="github">
  <diagram name="Page-1" id="gU3PsuldmHTDaVqjdivm">
    <mxGraphModel>
      <root>
        <mxCell id="0" />
        <mxCell id="1" parent="0" />
      </root>
    </mxGraphModel>
  </diagram>
</mxfile>
